<svg version="1.2" xmlns="http://www.w3.org/2000/svg" viewBox="0 0 24 24" width="30" height="30">
	<title>libary-svg</title>
	<style>
		.s0 { fill: #ffffff }
	</style>
	<path id="Layer" fill-rule="evenodd" class="s0" d="m14.5 2.1q0.1 0 0.2-0.1 0.2 0 0.3 0 0.1 0 0.3 0 0.1 0.1 0.2 0.1l6 3.5q0.1 0.1 0.2 0.2 0.1 0.1 0.2 0.2 0 0.1 0.1 0.2 0 0.1 0 0.3v14.5q0 0.2-0.1 0.4-0.1 0.2-0.2 0.3-0.1 0.1-0.3 0.2-0.2 0.1-0.4 0.1h-6q-0.2 0-0.4-0.1-0.2-0.1-0.3-0.2-0.1-0.1-0.2-0.3-0.1-0.2-0.1-0.4v-18q0-0.1 0-0.3 0.1-0.1 0.1-0.2 0.1-0.1 0.2-0.2 0.1-0.1 0.2-0.2zm1.5 2.6v15.3h4v-13zm-13 17.3q-0.2 0-0.4-0.1-0.2 0-0.3-0.2-0.1-0.1-0.2-0.3-0.1-0.2-0.1-0.4v-18q0-0.4 0.3-0.7 0.3-0.3 0.7-0.3 0.4 0 0.7 0.3 0.3 0.3 0.3 0.7v18q0 0.2-0.1 0.4-0.1 0.2-0.2 0.3-0.1 0.2-0.3 0.2-0.2 0.1-0.4 0.1zm6 0q-0.2 0-0.4-0.1-0.2 0-0.3-0.2-0.1-0.1-0.2-0.3-0.1-0.2-0.1-0.4v-18q0-0.4 0.3-0.7 0.3-0.3 0.7-0.3 0.4 0 0.7 0.3 0.3 0.3 0.3 0.7v18q0 0.2-0.1 0.4-0.1 0.2-0.2 0.3-0.1 0.2-0.3 0.2-0.2 0.1-0.4 0.1z"/>
	<path id="форма 1" class="s0" d="m16 5h3v3h-3z"/>
	<path id="форма 1" class="s0" d="m14 3h3v3h-3z"/>
	<path id="форма 2" class="s0" d="m17 6h3v3h-2z"/>
	<path id="форма 3" class="s0" d="m15 7h6v14h-6z"/>
	<path id="форма 4" class="s0" d="m16 6h4v3h-4z"/>
</svg>
